<svg width="512" height="512" viewBox="0 0 512 512" fill="none" xmlns="http://www.w3.org/2000/svg">
  <defs>
    <linearGradient id="matlabGradient" x1="58" y1="430" x2="410" y2="118" gradientUnits="userSpaceOnUse">
      <stop offset="0" stop-color="#F7A000" />
      <stop offset="0.45" stop-color="#E24C2B" />
      <stop offset="1" stop-color="#1678B7" />
    </linearGradient>
    <linearGradient id="matlabShade" x1="165" y1="280" x2="360" y2="150" gradientUnits="userSpaceOnUse">
      <stop offset="0" stop-color="#F7D48B" stop-opacity="0.9" />
      <stop offset="1" stop-color="#F7A000" stop-opacity="0.2" />
    </linearGradient>
    <filter id="shadow" x="40" y="60" width="432" height="392" filterUnits="userSpaceOnUse" color-interpolation-filters="sRGB">
      <feDropShadow dx="0" dy="12" stdDeviation="16" flood-color="#0B2545" flood-opacity="0.18" />
    </filter>
  </defs>
  <g filter="url(#shadow)">
    <path d="M104 376C152 292 192 128 250 128C308 128 352 304 404 368C352 344 310 310 262 318C216 326 176 356 104 376Z" fill="url(#matlabGradient)"/>
    <path d="M204 200C194 248 186 284 169 326C224 298 274 292 326 300C300 250 270 214 236 196C226 190 214 192 204 200Z" fill="url(#matlabShade)"/>
    <path d="M104 376C168 356 224 294 280 290C322 288 350 310 404 368C332 344 286 330 244 338C200 346 156 366 104 376Z" fill="#0B2545" fill-opacity="0.16"/>
  </g>
</svg>
