<svg width="200" height="200" viewBox="0 0 200 200" xmlns="http://www.w3.org/2000/svg" role="img" aria-label="Linux logo">
  <rect x="14" y="14" width="172" height="172" rx="28" fill="#0f172a" />
  <circle cx="100" cy="86" r="46" fill="#f8fafc" />
  <path d="M70 78c0-14 12-26 30-26s30 12 30 26v10c0 18-14 32-30 32s-30-14-30-32V78z" fill="#111827" />
  <circle cx="86" cy="82" r="6" fill="#f8fafc" />
  <circle cx="114" cy="82" r="6" fill="#f8fafc" />
  <circle cx="86" cy="82" r="3" fill="#0f172a" />
  <circle cx="114" cy="82" r="3" fill="#0f172a" />
  <path d="M82 126c6 10 14 16 24 16s18-6 24-16" stroke="#fbbf24" stroke-width="10" stroke-linecap="round" />
  <rect x="34" y="120" width="132" height="52" rx="22" fill="#fbbf24" />
  <text x="100" y="156" text-anchor="middle" font-family="'Inter','Segoe UI',sans-serif" font-size="22" font-weight="700" fill="#111827">Linux</text>
</svg>
