<?xml version="1.0" encoding="UTF-8" standalone="no"?>
<!-- Created with Inkscape (http://www.inkscape.org/) -->

<svg
   width="554.086"
   height="260.81979"
   viewBox="0 0 146.60193 69.008571"
   version="1.1"
   id="svg1"
   inkscape:version="1.3.2 (091e20e, 2023-11-25, custom)"
   sodipodi:docname="AMD_Vivado_logo.svg"
   xmlns:inkscape="http://www.inkscape.org/namespaces/inkscape"
   xmlns:sodipodi="http://sodipodi.sourceforge.net/DTD/sodipodi-0.dtd"
   xmlns="http://www.w3.org/2000/svg"
   xmlns:svg="http://www.w3.org/2000/svg">
  <sodipodi:namedview
     id="namedview1"
     pagecolor="#ffffff"
     bordercolor="#000000"
     borderopacity="0.25"
     inkscape:showpageshadow="2"
     inkscape:pageopacity="0.0"
     inkscape:pagecheckerboard="0"
     inkscape:deskcolor="#d1d1d1"
     inkscape:document-units="mm"
     inkscape:zoom="0.74029882"
     inkscape:cx="14.858865"
     inkscape:cy="69.566503"
     inkscape:window-width="1920"
     inkscape:window-height="1027"
     inkscape:window-x="-8"
     inkscape:window-y="-8"
     inkscape:window-maximized="1"
     inkscape:current-layer="layer1" />
  <defs
     id="defs1">
    <clipPath
       clipPathUnits="userSpaceOnUse"
       id="clipPath548">
      <path
         d="M 0,7953.265 H 1920 V 0 H 0 Z"
         transform="translate(-391.42541,-6085.3317)"
         id="path548" />
    </clipPath>
    <clipPath
       clipPathUnits="userSpaceOnUse"
       id="clipPath550">
      <path
         d="M 0,7953.265 H 1920 V 0 H 0 Z"
         transform="translate(-525.40162,-6105.8449)"
         id="path550" />
    </clipPath>
    <clipPath
       clipPathUnits="userSpaceOnUse"
       id="clipPath552">
      <path
         d="M 0,7953.265 H 1920 V 0 H 0 Z"
         transform="translate(-581.77831,-6035.694)"
         id="path552" />
    </clipPath>
    <clipPath
       clipPathUnits="userSpaceOnUse"
       id="clipPath554">
      <path
         d="M 0,7953.265 H 1920 V 0 H 0 Z"
         transform="translate(-732.64182,-6085.4895)"
         id="path554" />
    </clipPath>
    <clipPath
       clipPathUnits="userSpaceOnUse"
       id="clipPath568">
      <path
         d="M 0,7953.265 H 1920 V 0 H 0 Z"
         transform="translate(-629.26802,-5948.0646)"
         id="path568" />
    </clipPath>
    <clipPath
       clipPathUnits="userSpaceOnUse"
       id="clipPath566">
      <path
         d="M 0,7953.265 H 1920 V 0 H 0 Z"
         transform="translate(-573.95531,-5925.4626)"
         id="path566" />
    </clipPath>
    <clipPath
       clipPathUnits="userSpaceOnUse"
       id="clipPath564">
      <path
         d="M 0,7953.265 H 1920 V 0 H 0 Z"
         transform="translate(-518.97761,-5933.9752)"
         id="path564" />
    </clipPath>
    <clipPath
       clipPathUnits="userSpaceOnUse"
       id="clipPath562">
      <path
         d="M 0,7953.265 H 1920 V 0 H 0 Z"
         transform="translate(-479.01541,-5959.8288)"
         id="path562" />
    </clipPath>
    <clipPath
       clipPathUnits="userSpaceOnUse"
       id="clipPath560">
      <path
         d="M 0,7953.265 H 1920 V 0 H 0 Z"
         transform="translate(0,2.5000001e-4)"
         id="path560" />
    </clipPath>
    <clipPath
       clipPathUnits="userSpaceOnUse"
       id="clipPath558">
      <path
         d="M 0,7953.265 H 1920 V 0 H 0 Z"
         transform="translate(-408.15521,-5977.0119)"
         id="path558" />
    </clipPath>
    <clipPath
       clipPathUnits="userSpaceOnUse"
       id="clipPath556">
      <path
         d="M 0,7953.265 H 1920 V 0 H 0 Z"
         transform="translate(-688.32472,-6041.1721)"
         id="path556" />
    </clipPath>
  </defs>
  <g
     inkscape:label="Layer 1"
     inkscape:groupmode="layer"
     id="layer1"
     transform="translate(-205.58125,-175.68333)">
    <rect
       style="fill:#000000;fill-opacity:1;stroke:none;stroke-width:0.780028"
       id="rect1"
       width="146.60191"
       height="69.008621"
       x="205.58125"
       y="175.68333"
       rx="0" />
    <path
       id="path547"
       d="M 0,0 -12.592,-33.381 H 13.853 Z M 50.248,-65.382 H 27.193 l -7.054,17.006 h -38.406 l -6.424,-17.006 h -22.661 l 34.622,85.895 h 24.809 z"
       style="fill:#ffffff;fill-opacity:1;fill-rule:nonzero;stroke:none"
       transform="matrix(0.35277776,0,0,-0.35277776,222.28605,185.26259)"
       clip-path="url(#clipPath548)" />
    <path
       id="path549"
       d="M 0,0 H 18.641 V -85.896 H -2.778 v 53.658 l -23.174,-26.937 h -3.271 l -23.173,26.937 v -53.658 h -21.42 V 0 h 18.641 l 27.588,-31.863 z"
       style="fill:#ffffff;fill-opacity:1;fill-rule:nonzero;stroke:none"
       transform="matrix(0.35277776,0,0,-0.35277776,269.54988,178.026)"
       clip-path="url(#clipPath550)" />
    <path
       id="path551"
       d="m 0,0 h 13.971 c 21.538,0 27.962,14.602 27.962,27.213 0,14.74 -7.941,27.193 -28.218,27.193 L 0,54.406 Z m 16.513,70.151 c 31.351,0 47.47,-19.508 47.47,-43.076 0,-24.691 -15.607,-42.82 -49.874,-42.82 H -21.4 v 85.896 z"
       style="fill:#ffffff;fill-opacity:1;fill-rule:nonzero;stroke:none"
       transform="matrix(0.35277776,0,0,-0.35277776,289.43832,202.77367)"
       clip-path="url(#clipPath552)" />
    <path
       id="path553"
       d="m 0,0 h -44.278 l -27.016,26.996 h 98.29 v -98.29 L 0,-44.298 Z"
       style="fill:#ffffff;fill-opacity:1;fill-rule:nonzero;stroke:none"
       transform="matrix(0.35277776,0,0,-0.35277776,342.65961,185.20692)"
       clip-path="url(#clipPath554)" />
    <path
       id="path555"
       d="M 0,0 V 38.898 L -27.804,11.114 V -27.804 H 11.114 L 38.898,0 Z"
       style="fill:#ffffff;fill-opacity:1;fill-rule:nonzero;stroke:none"
       transform="matrix(0.35277776,0,0,-0.35277776,327.02553,200.84112)"
       clip-path="url(#clipPath556)" />
    <path
       id="path557"
       d="m 0,0 -27.745,-60.141 h -8.592 L -64.082,0 h 9.459 L -32.041,-48.968 -9.439,0 Z"
       style="fill:#ffffff;fill-opacity:1;fill-rule:nonzero;stroke:none"
       transform="matrix(0.35277776,0,0,-0.35277776,228.18795,223.47541)"
       clip-path="url(#clipPath558)" />
    <path
       id="path559"
       d="m 414.086,5959.829 h 8.591 v -42.958 h -8.591 z m 0,15.035 h 8.591 v -8.591 h -8.591 z"
       style="fill:#ffffff;fill-opacity:1;fill-rule:nonzero;stroke:none"
       transform="matrix(0.35277776,0,0,-0.35277776,84.19987,2332.0324)"
       clip-path="url(#clipPath560)" />
    <path
       id="path561"
       d="m 0,0 -19.843,-42.958 h -8.592 L -48.278,0 h 9.459 L -24.139,-31.785 -9.459,0 Z"
       style="fill:#ffffff;fill-opacity:1;fill-rule:nonzero;stroke:none"
       transform="matrix(0.35277776,0,0,-0.35277776,253.18586,229.53722)"
       clip-path="url(#clipPath562)" />
    <path
       id="path563"
       d="m 0,0 -22.503,0.079 c -1.813,0 -3.173,-1.458 -3.173,-3.173 V -5.32 c 0,-1.715 1.379,-3.173 3.173,-3.173 H 0 Z m -29.991,25.854 h 26.897 c 6.444,0 11.685,-5.242 11.685,-11.765 V -17.084 H 0 v 8.591 c 0,-4.729 -3.862,-8.591 -8.591,-8.591 h -14.011 c -6.444,0 -11.764,5.241 -11.764,11.764 v 2.226 c 0,6.523 5.32,11.764 11.764,11.764 L -8.591,8.592 C -3.862,8.592 0,4.729 0,0 v 14.089 c 0,1.715 -1.379,3.173 -3.173,3.173 h -26.799 v 8.592 z"
       style="fill:#ffffff;fill-opacity:1;fill-rule:nonzero;stroke:none"
       transform="matrix(0.35277776,0,0,-0.35277776,267.28363,238.65778)"
       clip-path="url(#clipPath564)" />
    <path
       id="path565"
       d="m 0,0 v 25.775 h -22.602 c -1.813,0 -3.172,-1.459 -3.172,-3.173 V 3.192 c 0,-1.714 1.379,-3.172 3.172,-3.172 L 0,0.02 Z m 0,51.549 h 8.513 v -60.14 h -31.174 c -6.444,0 -11.685,5.241 -11.685,11.764 v 19.41 c 0,6.522 5.241,11.764 11.685,11.764 H 0.02 v 17.202 z"
       style="fill:#ffffff;fill-opacity:1;fill-rule:nonzero;stroke:none"
       transform="matrix(0.35277776,0,0,-0.35277776,286.67854,241.66085)"
       clip-path="url(#clipPath566)" />
    <path
       id="path567"
       d="m 0,0 c 0,1.813 -1.379,3.173 -3.173,3.173 h -19.409 c -1.813,0 -3.173,-1.38 -3.173,-3.173 v -19.41 c 0,-1.813 1.38,-3.172 3.173,-3.172 h 19.409 c 1.813,0 3.173,1.379 3.173,3.172 z M -3.094,11.764 C 3.35,11.764 8.591,6.522 8.591,0.079 v -19.508 c 0,-6.523 -5.241,-11.764 -11.685,-11.764 h -19.508 c -6.522,0 -11.764,5.241 -11.764,11.764 V 0.079 c 0,6.443 5.242,11.685 11.764,11.685 z"
       style="fill:#ffffff;fill-opacity:1;fill-rule:nonzero;stroke:none"
       transform="matrix(0.35277776,0,0,-0.35277776,306.19163,233.68734)"
       clip-path="url(#clipPath568)" />
  </g>
</svg>
